<?xml version="1.0" standalone="no"?>
<!DOCTYPE svg PUBLIC "-//W3C//DTD SVG 20010904//EN"
 "http://www.w3.org/TR/2001/REC-SVG-20010904/DTD/svg10.dtd">
<svg version="1.0" xmlns="http://www.w3.org/2000/svg"
 width="454.000000pt" height="340.000000pt" viewBox="0 0 454.000000 340.000000"
 preserveAspectRatio="xMidYMid meet">
<metadata>
Created by potrace 1.16, written by Peter Selinger 2001-2019
</metadata>
<g transform="translate(0.000000,340.000000) scale(0.100000,-0.100000)"
fill="#000000" stroke="none">
<path d="M705 3131 c-65 -40 -95 -92 -95 -162 0 -76 46 -145 118 -176 29 -12
32 -17 27 -46 -2 -18 -10 -70 -15 -117 -6 -47 -35 -229 -65 -405 -29 -176 -59
-363 -65 -415 -6 -52 -25 -187 -41 -300 -52 -365 -50 -550 11 -730 40 -121 91
-203 180 -291 139 -136 285 -194 470 -187 89 3 115 8 167 32 76 35 154 113
189 190 72 158 71 399 -4 601 -62 170 -104 308 -127 415 -13 63 -24 108 -24
100 -9 -489 -13 -586 -25 -655 -7 -44 -13 -81 -12 -82 2 -2 34 24 73 57 55 46
72 56 77 44 12 -31 5 -220 -9 -283 -30 -128 -99 -211 -205 -252 -176 -67 -430
42 -543 232 -105 177 -127 404 -83 826 8 76 22 212 31 303 9 91 27 242 40 335
33 232 55 449 55 540 l0 75 38 19 c45 23 87 66 101 104 32 84 -10 191 -91 233
-40 21 -136 18 -173 -5z m129 -65 c67 -28 88 -109 43 -162 -20 -23 -32 -27
-81 -29 -52 -1 -59 1 -82 28 -45 54 -26 134 40 163 39 17 40 17 80 0z m-133
-1208 c-39 -394 -45 -485 -46 -708 0 -251 7 -294 70 -429 46 -96 140 -190 250
-249 44 -24 69 -40 55 -36 -111 29 -263 162 -318 277 -59 123 -76 217 -75 422
1 99 6 239 12 310 18 216 64 640 69 627 2 -6 -6 -103 -17 -214z"/>
<path d="M3570 3035 c-217 -37 -439 -116 -560 -198 -74 -51 -245 -224 -300
-303 -110 -160 -214 -415 -261 -643 l-24 -113 -45 -23 c-65 -33 -290 -241
-290 -268 0 -3 9 -7 20 -10 13 -3 20 -14 20 -29 0 -50 21 -98 49 -113 23 -12
29 -23 34 -62 3 -26 14 -94 24 -150 l19 -103 37 88 c48 111 119 244 134 249 6
2 22 -30 38 -79 37 -111 122 -277 198 -385 78 -111 278 -312 380 -381 246
-169 493 -210 794 -131 161 42 278 122 398 272 100 124 160 260 126 282 -5 3
-56 -17 -113 -44 -165 -78 -161 -78 -473 -68 -47 2 -50 0 -53 -23 -2 -20 6
-33 38 -58 52 -42 73 -84 73 -147 2 -91 -47 -131 -151 -123 -153 11 -295 157
-371 385 -26 76 -26 96 -3 65 l18 -23 67 45 c36 25 71 46 77 46 33 0 -5 40
-116 121 l-127 93 7 131 c8 147 23 266 37 298 10 24 4 -189 -7 -217 -8 -21 49
-22 66 -1 7 8 38 29 69 46 84 48 91 56 91 108 0 69 -35 203 -82 311 l-40 95
47 92 c42 84 151 253 269 420 51 71 82 147 98 243 12 69 3 120 -21 120 -5 0
-19 -29 -31 -64 -12 -36 -31 -77 -42 -92 -22 -27 -115 -77 -129 -68 -11 7 7
65 72 225 32 80 59 155 59 166 0 19 -20 35 -38 32 -4 -1 -41 -7 -82 -14z"/>
</g>
</svg>
